<?xml version="1.0" standalone="no"?>
<!DOCTYPE svg PUBLIC "-//W3C//DTD SVG 20010904//EN"
 "http://www.w3.org/TR/2001/REC-SVG-20010904/DTD/svg10.dtd">
<svg version="1.0" xmlns="http://www.w3.org/2000/svg"
 width="96.000000pt" height="96.000000pt" viewBox="0 0 96.000000 96.000000"
 preserveAspectRatio="xMidYMid meet">
<metadata>
Created by potrace 1.11, written by Peter Selinger 2001-2013
</metadata>
<g transform="translate(0.000000,96.000000) scale(0.100000,-0.100000)"
fill="#000000" stroke="none">
<path d="M29 751 l-29 -29 0 -182 0 -182 29 -29 29 -29 211 0 211 0 0 30 0 30
-204 0 c-177 0 -205 2 -210 16 -3 9 -6 87 -6 174 0 135 2 159 16 164 9 3 181
6 384 6 326 0 369 -2 374 -16 3 -9 6 -63 6 -120 l0 -104 30 0 30 0 0 121 c0
120 0 121 -29 150 l-29 29 -392 0 -392 0 -29 -29z"/>
<path d="M140 580 c-11 -11 -20 -29 -20 -40 0 -26 34 -60 60 -60 26 0 60 34
60 60 0 11 -9 29 -20 40 -11 11 -29 20 -40 20 -11 0 -29 -9 -40 -20z"/>
<path d="M320 580 c-11 -11 -20 -29 -20 -40 0 -11 9 -29 20 -40 11 -11 29 -20
40 -20 26 0 60 34 60 60 0 11 -9 29 -20 40 -11 11 -29 20 -40 20 -11 0 -29 -9
-40 -20z"/>
<path d="M500 580 c-11 -11 -20 -29 -20 -40 0 -11 9 -29 20 -40 11 -11 29 -20
40 -20 26 0 60 34 60 60 0 11 -9 29 -20 40 -11 11 -29 20 -40 20 -11 0 -29 -9
-40 -20z"/>
<path d="M680 580 c-38 -38 -12 -100 42 -100 24 0 58 35 58 60 0 11 -9 29 -20
40 -11 11 -29 20 -40 20 -11 0 -29 -9 -40 -20z"/>
<path d="M661 399 c-44 -19 -98 -81 -109 -124 -8 -29 -10 -30 -80 -33 -40 -2
-72 -5 -72 -7 0 -3 38 -43 85 -90 l85 -86 85 84 c47 47 85 87 85 91 0 3 -32 6
-70 6 l-70 0 19 38 c53 103 198 107 256 8 29 -50 31 -80 9 -136 -17 -41 -80
-90 -117 -90 -12 0 -17 -9 -17 -30 0 -37 24 -40 86 -9 85 40 132 125 120 215
-17 141 -164 222 -295 163z"/>
</g>
</svg>
